<?xml version="1.0" encoding="utf-8"?>
<svg xmlns="http://www.w3.org/2000/svg" xmlns:xlink="http://www.w3.org/1999/xlink" xml:space="preserve" width="990" height="990" viewBox="0 0 990 990"><g fill="#000000">
<g transform="translate(308,44) scale(3.7766666666667)"><rect width="6" height="6"/></g>
<g transform="translate(396,44) scale(3.7766666666667)"><rect width="6" height="6"/></g>
<g transform="translate(462,44) scale(3.7766666666667)"><rect width="6" height="6"/></g>
<g transform="translate(550,44) scale(3.7766666666667)"><rect width="6" height="6"/></g>
<g transform="translate(616,44) scale(3.7766666666667)"><rect width="6" height="6"/></g>
<g transform="translate(660,44) scale(3.7766666666667)"><rect width="6" height="6"/></g>
<g transform="translate(704,44) scale(3.7766666666667)"><rect width="6" height="6"/></g>
<g transform="translate(726,44) scale(3.7766666666667)"><rect width="6" height="6"/></g>
<g transform="translate(748,44) scale(3.7766666666667)"><rect width="6" height="6"/></g>
<g transform="translate(220,66) scale(3.7766666666667)"><rect width="6" height="6"/></g>
<g transform="translate(242,66) scale(3.7766666666667)"><rect width="6" height="6"/></g>
<g transform="translate(308,66) scale(3.7766666666667)"><rect width="6" height="6"/></g>
<g transform="translate(374,66) scale(3.7766666666667)"><rect width="6" height="6"/></g>
<g transform="translate(396,66) scale(3.7766666666667)"><rect width="6" height="6"/></g>
<g transform="translate(440,66) scale(3.7766666666667)"><rect width="6" height="6"/></g>
<g transform="translate(484,66) scale(3.7766666666667)"><rect width="6" height="6"/></g>
<g transform="translate(506,66) scale(3.7766666666667)"><rect width="6" height="6"/></g>
<g transform="translate(572,66) scale(3.7766666666667)"><rect width="6" height="6"/></g>
<g transform="translate(594,66) scale(3.7766666666667)"><rect width="6" height="6"/></g>
<g transform="translate(616,66) scale(3.7766666666667)"><rect width="6" height="6"/></g>
<g transform="translate(638,66) scale(3.7766666666667)"><rect width="6" height="6"/></g>
<g transform="translate(660,66) scale(3.7766666666667)"><rect width="6" height="6"/></g>
<g transform="translate(704,66) scale(3.7766666666667)"><rect width="6" height="6"/></g>
<g transform="translate(286,88) scale(3.7766666666667)"><rect width="6" height="6"/></g>
<g transform="translate(308,88) scale(3.7766666666667)"><rect width="6" height="6"/></g>
<g transform="translate(352,88) scale(3.7766666666667)"><rect width="6" height="6"/></g>
<g transform="translate(374,88) scale(3.7766666666667)"><rect width="6" height="6"/></g>
<g transform="translate(396,88) scale(3.7766666666667)"><rect width="6" height="6"/></g>
<g transform="translate(462,88) scale(3.7766666666667)"><rect width="6" height="6"/></g>
<g transform="translate(484,88) scale(3.7766666666667)"><rect width="6" height="6"/></g>
<g transform="translate(506,88) scale(3.7766666666667)"><rect width="6" height="6"/></g>
<g transform="translate(528,88) scale(3.7766666666667)"><rect width="6" height="6"/></g>
<g transform="translate(616,88) scale(3.7766666666667)"><rect width="6" height="6"/></g>
<g transform="translate(660,88) scale(3.7766666666667)"><rect width="6" height="6"/></g>
<g transform="translate(704,88) scale(3.7766666666667)"><rect width="6" height="6"/></g>
<g transform="translate(748,88) scale(3.7766666666667)"><rect width="6" height="6"/></g>
<g transform="translate(220,110) scale(3.7766666666667)"><rect width="6" height="6"/></g>
<g transform="translate(286,110) scale(3.7766666666667)"><rect width="6" height="6"/></g>
<g transform="translate(374,110) scale(3.7766666666667)"><rect width="6" height="6"/></g>
<g transform="translate(440,110) scale(3.7766666666667)"><rect width="6" height="6"/></g>
<g transform="translate(528,110) scale(3.7766666666667)"><rect width="6" height="6"/></g>
<g transform="translate(572,110) scale(3.7766666666667)"><rect width="6" height="6"/></g>
<g transform="translate(616,110) scale(3.7766666666667)"><rect width="6" height="6"/></g>
<g transform="translate(660,110) scale(3.7766666666667)"><rect width="6" height="6"/></g>
<g transform="translate(682,110) scale(3.7766666666667)"><rect width="6" height="6"/></g>
<g transform="translate(726,110) scale(3.7766666666667)"><rect width="6" height="6"/></g>
<g transform="translate(748,110) scale(3.7766666666667)"><rect width="6" height="6"/></g>
<g transform="translate(264,132) scale(3.7766666666667)"><rect width="6" height="6"/></g>
<g transform="translate(352,132) scale(3.7766666666667)"><rect width="6" height="6"/></g>
<g transform="translate(374,132) scale(3.7766666666667)"><rect width="6" height="6"/></g>
<g transform="translate(396,132) scale(3.7766666666667)"><rect width="6" height="6"/></g>
<g transform="translate(484,132) scale(3.7766666666667)"><rect width="6" height="6"/></g>
<g transform="translate(506,132) scale(3.7766666666667)"><rect width="6" height="6"/></g>
<g transform="translate(550,132) scale(3.7766666666667)"><rect width="6" height="6"/></g>
<g transform="translate(638,132) scale(3.7766666666667)"><rect width="6" height="6"/></g>
<g transform="translate(660,132) scale(3.7766666666667)"><rect width="6" height="6"/></g>
<g transform="translate(682,132) scale(3.7766666666667)"><rect width="6" height="6"/></g>
<g transform="translate(704,132) scale(3.7766666666667)"><rect width="6" height="6"/></g>
<g transform="translate(726,132) scale(3.7766666666667)"><rect width="6" height="6"/></g>
<g transform="translate(220,154) scale(3.7766666666667)"><rect width="6" height="6"/></g>
<g transform="translate(242,154) scale(3.7766666666667)"><rect width="6" height="6"/></g>
<g transform="translate(264,154) scale(3.7766666666667)"><rect width="6" height="6"/></g>
<g transform="translate(286,154) scale(3.7766666666667)"><rect width="6" height="6"/></g>
<g transform="translate(308,154) scale(3.7766666666667)"><rect width="6" height="6"/></g>
<g transform="translate(330,154) scale(3.7766666666667)"><rect width="6" height="6"/></g>
<g transform="translate(440,154) scale(3.7766666666667)"><rect width="6" height="6"/></g>
<g transform="translate(462,154) scale(3.7766666666667)"><rect width="6" height="6"/></g>
<g transform="translate(506,154) scale(3.7766666666667)"><rect width="6" height="6"/></g>
<g transform="translate(572,154) scale(3.7766666666667)"><rect width="6" height="6"/></g>
<g transform="translate(638,154) scale(3.7766666666667)"><rect width="6" height="6"/></g>
<g transform="translate(220,176) scale(3.7766666666667)"><rect width="6" height="6"/></g>
<g transform="translate(264,176) scale(3.7766666666667)"><rect width="6" height="6"/></g>
<g transform="translate(308,176) scale(3.7766666666667)"><rect width="6" height="6"/></g>
<g transform="translate(352,176) scale(3.7766666666667)"><rect width="6" height="6"/></g>
<g transform="translate(396,176) scale(3.7766666666667)"><rect width="6" height="6"/></g>
<g transform="translate(440,176) scale(3.7766666666667)"><rect width="6" height="6"/></g>
<g transform="translate(484,176) scale(3.7766666666667)"><rect width="6" height="6"/></g>
<g transform="translate(528,176) scale(3.7766666666667)"><rect width="6" height="6"/></g>
<g transform="translate(572,176) scale(3.7766666666667)"><rect width="6" height="6"/></g>
<g transform="translate(616,176) scale(3.7766666666667)"><rect width="6" height="6"/></g>
<g transform="translate(660,176) scale(3.7766666666667)"><rect width="6" height="6"/></g>
<g transform="translate(704,176) scale(3.7766666666667)"><rect width="6" height="6"/></g>
<g transform="translate(748,176) scale(3.7766666666667)"><rect width="6" height="6"/></g>
<g transform="translate(242,198) scale(3.7766666666667)"><rect width="6" height="6"/></g>
<g transform="translate(264,198) scale(3.7766666666667)"><rect width="6" height="6"/></g>
<g transform="translate(308,198) scale(3.7766666666667)"><rect width="6" height="6"/></g>
<g transform="translate(396,198) scale(3.7766666666667)"><rect width="6" height="6"/></g>
<g transform="translate(462,198) scale(3.7766666666667)"><rect width="6" height="6"/></g>
<g transform="translate(484,198) scale(3.7766666666667)"><rect width="6" height="6"/></g>
<g transform="translate(506,198) scale(3.7766666666667)"><rect width="6" height="6"/></g>
<g transform="translate(528,198) scale(3.7766666666667)"><rect width="6" height="6"/></g>
<g transform="translate(572,198) scale(3.7766666666667)"><rect width="6" height="6"/></g>
<g transform="translate(616,198) scale(3.7766666666667)"><rect width="6" height="6"/></g>
<g transform="translate(704,198) scale(3.7766666666667)"><rect width="6" height="6"/></g>
<g transform="translate(748,198) scale(3.7766666666667)"><rect width="6" height="6"/></g>
<g transform="translate(44,220) scale(3.7766666666667)"><rect width="6" height="6"/></g>
<g transform="translate(66,220) scale(3.7766666666667)"><rect width="6" height="6"/></g>
<g transform="translate(88,220) scale(3.7766666666667)"><rect width="6" height="6"/></g>
<g transform="translate(110,220) scale(3.7766666666667)"><rect width="6" height="6"/></g>
<g transform="translate(132,220) scale(3.7766666666667)"><rect width="6" height="6"/></g>
<g transform="translate(176,220) scale(3.7766666666667)"><rect width="6" height="6"/></g>
<g transform="translate(198,220) scale(3.7766666666667)"><rect width="6" height="6"/></g>
<g transform="translate(220,220) scale(3.7766666666667)"><rect width="6" height="6"/></g>
<g transform="translate(242,220) scale(3.7766666666667)"><rect width="6" height="6"/></g>
<g transform="translate(286,220) scale(3.7766666666667)"><rect width="6" height="6"/></g>
<g transform="translate(308,220) scale(3.7766666666667)"><rect width="6" height="6"/></g>
<g transform="translate(330,220) scale(3.7766666666667)"><rect width="6" height="6"/></g>
<g transform="translate(396,220) scale(3.7766666666667)"><rect width="6" height="6"/></g>
<g transform="translate(418,220) scale(3.7766666666667)"><rect width="6" height="6"/></g>
<g transform="translate(462,220) scale(3.7766666666667)"><rect width="6" height="6"/></g>
<g transform="translate(484,220) scale(3.7766666666667)"><rect width="6" height="6"/></g>
<g transform="translate(528,220) scale(3.7766666666667)"><rect width="6" height="6"/></g>
<g transform="translate(572,220) scale(3.7766666666667)"><rect width="6" height="6"/></g>
<g transform="translate(594,220) scale(3.7766666666667)"><rect width="6" height="6"/></g>
<g transform="translate(616,220) scale(3.7766666666667)"><rect width="6" height="6"/></g>
<g transform="translate(638,220) scale(3.7766666666667)"><rect width="6" height="6"/></g>
<g transform="translate(682,220) scale(3.7766666666667)"><rect width="6" height="6"/></g>
<g transform="translate(770,220) scale(3.7766666666667)"><rect width="6" height="6"/></g>
<g transform="translate(814,220) scale(3.7766666666667)"><rect width="6" height="6"/></g>
<g transform="translate(858,220) scale(3.7766666666667)"><rect width="6" height="6"/></g>
<g transform="translate(902,220) scale(3.7766666666667)"><rect width="6" height="6"/></g>
<g transform="translate(66,242) scale(3.7766666666667)"><rect width="6" height="6"/></g>
<g transform="translate(198,242) scale(3.7766666666667)"><rect width="6" height="6"/></g>
<g transform="translate(220,242) scale(3.7766666666667)"><rect width="6" height="6"/></g>
<g transform="translate(242,242) scale(3.7766666666667)"><rect width="6" height="6"/></g>
<g transform="translate(286,242) scale(3.7766666666667)"><rect width="6" height="6"/></g>
<g transform="translate(308,242) scale(3.7766666666667)"><rect width="6" height="6"/></g>
<g transform="translate(330,242) scale(3.7766666666667)"><rect width="6" height="6"/></g>
<g transform="translate(352,242) scale(3.7766666666667)"><rect width="6" height="6"/></g>
<g transform="translate(396,242) scale(3.7766666666667)"><rect width="6" height="6"/></g>
<g transform="translate(418,242) scale(3.7766666666667)"><rect width="6" height="6"/></g>
<g transform="translate(440,242) scale(3.7766666666667)"><rect width="6" height="6"/></g>
<g transform="translate(484,242) scale(3.7766666666667)"><rect width="6" height="6"/></g>
<g transform="translate(506,242) scale(3.7766666666667)"><rect width="6" height="6"/></g>
<g transform="translate(528,242) scale(3.7766666666667)"><rect width="6" height="6"/></g>
<g transform="translate(550,242) scale(3.7766666666667)"><rect width="6" height="6"/></g>
<g transform="translate(616,242) scale(3.7766666666667)"><rect width="6" height="6"/></g>
<g transform="translate(704,242) scale(3.7766666666667)"><rect width="6" height="6"/></g>
<g transform="translate(726,242) scale(3.7766666666667)"><rect width="6" height="6"/></g>
<g transform="translate(748,242) scale(3.7766666666667)"><rect width="6" height="6"/></g>
<g transform="translate(792,242) scale(3.7766666666667)"><rect width="6" height="6"/></g>
<g transform="translate(814,242) scale(3.7766666666667)"><rect width="6" height="6"/></g>
<g transform="translate(836,242) scale(3.7766666666667)"><rect width="6" height="6"/></g>
<g transform="translate(858,242) scale(3.7766666666667)"><rect width="6" height="6"/></g>
<g transform="translate(902,242) scale(3.7766666666667)"><rect width="6" height="6"/></g>
<g transform="translate(924,242) scale(3.7766666666667)"><rect width="6" height="6"/></g>
<g transform="translate(66,264) scale(3.7766666666667)"><rect width="6" height="6"/></g>
<g transform="translate(88,264) scale(3.7766666666667)"><rect width="6" height="6"/></g>
<g transform="translate(110,264) scale(3.7766666666667)"><rect width="6" height="6"/></g>
<g transform="translate(132,264) scale(3.7766666666667)"><rect width="6" height="6"/></g>
<g transform="translate(176,264) scale(3.7766666666667)"><rect width="6" height="6"/></g>
<g transform="translate(264,264) scale(3.7766666666667)"><rect width="6" height="6"/></g>
<g transform="translate(330,264) scale(3.7766666666667)"><rect width="6" height="6"/></g>
<g transform="translate(352,264) scale(3.7766666666667)"><rect width="6" height="6"/></g>
<g transform="translate(374,264) scale(3.7766666666667)"><rect width="6" height="6"/></g>
<g transform="translate(418,264) scale(3.7766666666667)"><rect width="6" height="6"/></g>
<g transform="translate(484,264) scale(3.7766666666667)"><rect width="6" height="6"/></g>
<g transform="translate(528,264) scale(3.7766666666667)"><rect width="6" height="6"/></g>
<g transform="translate(594,264) scale(3.7766666666667)"><rect width="6" height="6"/></g>
<g transform="translate(616,264) scale(3.7766666666667)"><rect width="6" height="6"/></g>
<g transform="translate(638,264) scale(3.7766666666667)"><rect width="6" height="6"/></g>
<g transform="translate(660,264) scale(3.7766666666667)"><rect width="6" height="6"/></g>
<g transform="translate(682,264) scale(3.7766666666667)"><rect width="6" height="6"/></g>
<g transform="translate(704,264) scale(3.7766666666667)"><rect width="6" height="6"/></g>
<g transform="translate(748,264) scale(3.7766666666667)"><rect width="6" height="6"/></g>
<g transform="translate(770,264) scale(3.7766666666667)"><rect width="6" height="6"/></g>
<g transform="translate(792,264) scale(3.7766666666667)"><rect width="6" height="6"/></g>
<g transform="translate(110,286) scale(3.7766666666667)"><rect width="6" height="6"/></g>
<g transform="translate(198,286) scale(3.7766666666667)"><rect width="6" height="6"/></g>
<g transform="translate(220,286) scale(3.7766666666667)"><rect width="6" height="6"/></g>
<g transform="translate(242,286) scale(3.7766666666667)"><rect width="6" height="6"/></g>
<g transform="translate(308,286) scale(3.7766666666667)"><rect width="6" height="6"/></g>
<g transform="translate(330,286) scale(3.7766666666667)"><rect width="6" height="6"/></g>
<g transform="translate(374,286) scale(3.7766666666667)"><rect width="6" height="6"/></g>
<g transform="translate(396,286) scale(3.7766666666667)"><rect width="6" height="6"/></g>
<g transform="translate(418,286) scale(3.7766666666667)"><rect width="6" height="6"/></g>
<g transform="translate(440,286) scale(3.7766666666667)"><rect width="6" height="6"/></g>
<g transform="translate(506,286) scale(3.7766666666667)"><rect width="6" height="6"/></g>
<g transform="translate(550,286) scale(3.7766666666667)"><rect width="6" height="6"/></g>
<g transform="translate(638,286) scale(3.7766666666667)"><rect width="6" height="6"/></g>
<g transform="translate(660,286) scale(3.7766666666667)"><rect width="6" height="6"/></g>
<g transform="translate(748,286) scale(3.7766666666667)"><rect width="6" height="6"/></g>
<g transform="translate(814,286) scale(3.7766666666667)"><rect width="6" height="6"/></g>
<g transform="translate(858,286) scale(3.7766666666667)"><rect width="6" height="6"/></g>
<g transform="translate(902,286) scale(3.7766666666667)"><rect width="6" height="6"/></g>
<g transform="translate(110,308) scale(3.7766666666667)"><rect width="6" height="6"/></g>
<g transform="translate(154,308) scale(3.7766666666667)"><rect width="6" height="6"/></g>
<g transform="translate(176,308) scale(3.7766666666667)"><rect width="6" height="6"/></g>
<g transform="translate(198,308) scale(3.7766666666667)"><rect width="6" height="6"/></g>
<g transform="translate(264,308) scale(3.7766666666667)"><rect width="6" height="6"/></g>
<g transform="translate(286,308) scale(3.7766666666667)"><rect width="6" height="6"/></g>
<g transform="translate(352,308) scale(3.7766666666667)"><rect width="6" height="6"/></g>
<g transform="translate(396,308) scale(3.7766666666667)"><rect width="6" height="6"/></g>
<g transform="translate(462,308) scale(3.7766666666667)"><rect width="6" height="6"/></g>
<g transform="translate(484,308) scale(3.7766666666667)"><rect width="6" height="6"/></g>
<g transform="translate(506,308) scale(3.7766666666667)"><rect width="6" height="6"/></g>
<g transform="translate(528,308) scale(3.7766666666667)"><rect width="6" height="6"/></g>
<g transform="translate(550,308) scale(3.7766666666667)"><rect width="6" height="6"/></g>
<g transform="translate(594,308) scale(3.7766666666667)"><rect width="6" height="6"/></g>
<g transform="translate(616,308) scale(3.7766666666667)"><rect width="6" height="6"/></g>
<g transform="translate(682,308) scale(3.7766666666667)"><rect width="6" height="6"/></g>
<g transform="translate(814,308) scale(3.7766666666667)"><rect width="6" height="6"/></g>
<g transform="translate(858,308) scale(3.7766666666667)"><rect width="6" height="6"/></g>
<g transform="translate(880,308) scale(3.7766666666667)"><rect width="6" height="6"/></g>
<g transform="translate(924,308) scale(3.7766666666667)"><rect width="6" height="6"/></g>
<g transform="translate(44,330) scale(3.7766666666667)"><rect width="6" height="6"/></g>
<g transform="translate(88,330) scale(3.7766666666667)"><rect width="6" height="6"/></g>
<g transform="translate(242,330) scale(3.7766666666667)"><rect width="6" height="6"/></g>
<g transform="translate(264,330) scale(3.7766666666667)"><rect width="6" height="6"/></g>
<g transform="translate(308,330) scale(3.7766666666667)"><rect width="6" height="6"/></g>
<g transform="translate(374,330) scale(3.7766666666667)"><rect width="6" height="6"/></g>
<g transform="translate(418,330) scale(3.7766666666667)"><rect width="6" height="6"/></g>
<g transform="translate(440,330) scale(3.7766666666667)"><rect width="6" height="6"/></g>
<g transform="translate(506,330) scale(3.7766666666667)"><rect width="6" height="6"/></g>
<g transform="translate(528,330) scale(3.7766666666667)"><rect width="6" height="6"/></g>
<g transform="translate(550,330) scale(3.7766666666667)"><rect width="6" height="6"/></g>
<g transform="translate(572,330) scale(3.7766666666667)"><rect width="6" height="6"/></g>
<g transform="translate(616,330) scale(3.7766666666667)"><rect width="6" height="6"/></g>
<g transform="translate(660,330) scale(3.7766666666667)"><rect width="6" height="6"/></g>
<g transform="translate(704,330) scale(3.7766666666667)"><rect width="6" height="6"/></g>
<g transform="translate(726,330) scale(3.7766666666667)"><rect width="6" height="6"/></g>
<g transform="translate(748,330) scale(3.7766666666667)"><rect width="6" height="6"/></g>
<g transform="translate(770,330) scale(3.7766666666667)"><rect width="6" height="6"/></g>
<g transform="translate(792,330) scale(3.7766666666667)"><rect width="6" height="6"/></g>
<g transform="translate(814,330) scale(3.7766666666667)"><rect width="6" height="6"/></g>
<g transform="translate(836,330) scale(3.7766666666667)"><rect width="6" height="6"/></g>
<g transform="translate(924,330) scale(3.7766666666667)"><rect width="6" height="6"/></g>
<g transform="translate(66,352) scale(3.7766666666667)"><rect width="6" height="6"/></g>
<g transform="translate(88,352) scale(3.7766666666667)"><rect width="6" height="6"/></g>
<g transform="translate(176,352) scale(3.7766666666667)"><rect width="6" height="6"/></g>
<g transform="translate(198,352) scale(3.7766666666667)"><rect width="6" height="6"/></g>
<g transform="translate(220,352) scale(3.7766666666667)"><rect width="6" height="6"/></g>
<g transform="translate(264,352) scale(3.7766666666667)"><rect width="6" height="6"/></g>
<g transform="translate(330,352) scale(3.7766666666667)"><rect width="6" height="6"/></g>
<g transform="translate(374,352) scale(3.7766666666667)"><rect width="6" height="6"/></g>
<g transform="translate(396,352) scale(3.7766666666667)"><rect width="6" height="6"/></g>
<g transform="translate(484,352) scale(3.7766666666667)"><rect width="6" height="6"/></g>
<g transform="translate(506,352) scale(3.7766666666667)"><rect width="6" height="6"/></g>
<g transform="translate(528,352) scale(3.7766666666667)"><rect width="6" height="6"/></g>
<g transform="translate(572,352) scale(3.7766666666667)"><rect width="6" height="6"/></g>
<g transform="translate(594,352) scale(3.7766666666667)"><rect width="6" height="6"/></g>
<g transform="translate(638,352) scale(3.7766666666667)"><rect width="6" height="6"/></g>
<g transform="translate(770,352) scale(3.7766666666667)"><rect width="6" height="6"/></g>
<g transform="translate(880,352) scale(3.7766666666667)"><rect width="6" height="6"/></g>
<g transform="translate(132,374) scale(3.7766666666667)"><rect width="6" height="6"/></g>
<g transform="translate(220,374) scale(3.7766666666667)"><rect width="6" height="6"/></g>
<g transform="translate(242,374) scale(3.7766666666667)"><rect width="6" height="6"/></g>
<g transform="translate(308,374) scale(3.7766666666667)"><rect width="6" height="6"/></g>
<g transform="translate(374,374) scale(3.7766666666667)"><rect width="6" height="6"/></g>
<g transform="translate(440,374) scale(3.7766666666667)"><rect width="6" height="6"/></g>
<g transform="translate(506,374) scale(3.7766666666667)"><rect width="6" height="6"/></g>
<g transform="translate(550,374) scale(3.7766666666667)"><rect width="6" height="6"/></g>
<g transform="translate(572,374) scale(3.7766666666667)"><rect width="6" height="6"/></g>
<g transform="translate(660,374) scale(3.7766666666667)"><rect width="6" height="6"/></g>
<g transform="translate(726,374) scale(3.7766666666667)"><rect width="6" height="6"/></g>
<g transform="translate(770,374) scale(3.7766666666667)"><rect width="6" height="6"/></g>
<g transform="translate(792,374) scale(3.7766666666667)"><rect width="6" height="6"/></g>
<g transform="translate(836,374) scale(3.7766666666667)"><rect width="6" height="6"/></g>
<g transform="translate(858,374) scale(3.7766666666667)"><rect width="6" height="6"/></g>
<g transform="translate(902,374) scale(3.7766666666667)"><rect width="6" height="6"/></g>
<g transform="translate(44,396) scale(3.7766666666667)"><rect width="6" height="6"/></g>
<g transform="translate(110,396) scale(3.7766666666667)"><rect width="6" height="6"/></g>
<g transform="translate(132,396) scale(3.7766666666667)"><rect width="6" height="6"/></g>
<g transform="translate(154,396) scale(3.7766666666667)"><rect width="6" height="6"/></g>
<g transform="translate(176,396) scale(3.7766666666667)"><rect width="6" height="6"/></g>
<g transform="translate(308,396) scale(3.7766666666667)"><rect width="6" height="6"/></g>
<g transform="translate(352,396) scale(3.7766666666667)"><rect width="6" height="6"/></g>
<g transform="translate(374,396) scale(3.7766666666667)"><rect width="6" height="6"/></g>
<g transform="translate(484,396) scale(3.7766666666667)"><rect width="6" height="6"/></g>
<g transform="translate(528,396) scale(3.7766666666667)"><rect width="6" height="6"/></g>
<g transform="translate(594,396) scale(3.7766666666667)"><rect width="6" height="6"/></g>
<g transform="translate(682,396) scale(3.7766666666667)"><rect width="6" height="6"/></g>
<g transform="translate(726,396) scale(3.7766666666667)"><rect width="6" height="6"/></g>
<g transform="translate(880,396) scale(3.7766666666667)"><rect width="6" height="6"/></g>
<g transform="translate(44,418) scale(3.7766666666667)"><rect width="6" height="6"/></g>
<g transform="translate(66,418) scale(3.7766666666667)"><rect width="6" height="6"/></g>
<g transform="translate(88,418) scale(3.7766666666667)"><rect width="6" height="6"/></g>
<g transform="translate(220,418) scale(3.7766666666667)"><rect width="6" height="6"/></g>
<g transform="translate(242,418) scale(3.7766666666667)"><rect width="6" height="6"/></g>
<g transform="translate(264,418) scale(3.7766666666667)"><rect width="6" height="6"/></g>
<g transform="translate(286,418) scale(3.7766666666667)"><rect width="6" height="6"/></g>
<g transform="translate(352,418) scale(3.7766666666667)"><rect width="6" height="6"/></g>
<g transform="translate(396,418) scale(3.7766666666667)"><rect width="6" height="6"/></g>
<g transform="translate(440,418) scale(3.7766666666667)"><rect width="6" height="6"/></g>
<g transform="translate(484,418) scale(3.7766666666667)"><rect width="6" height="6"/></g>
<g transform="translate(506,418) scale(3.7766666666667)"><rect width="6" height="6"/></g>
<g transform="translate(550,418) scale(3.7766666666667)"><rect width="6" height="6"/></g>
<g transform="translate(572,418) scale(3.7766666666667)"><rect width="6" height="6"/></g>
<g transform="translate(660,418) scale(3.7766666666667)"><rect width="6" height="6"/></g>
<g transform="translate(682,418) scale(3.7766666666667)"><rect width="6" height="6"/></g>
<g transform="translate(726,418) scale(3.7766666666667)"><rect width="6" height="6"/></g>
<g transform="translate(748,418) scale(3.7766666666667)"><rect width="6" height="6"/></g>
<g transform="translate(770,418) scale(3.7766666666667)"><rect width="6" height="6"/></g>
<g transform="translate(792,418) scale(3.7766666666667)"><rect width="6" height="6"/></g>
<g transform="translate(814,418) scale(3.7766666666667)"><rect width="6" height="6"/></g>
<g transform="translate(836,418) scale(3.7766666666667)"><rect width="6" height="6"/></g>
<g transform="translate(902,418) scale(3.7766666666667)"><rect width="6" height="6"/></g>
<g transform="translate(924,418) scale(3.7766666666667)"><rect width="6" height="6"/></g>
<g transform="translate(44,440) scale(3.7766666666667)"><rect width="6" height="6"/></g>
<g transform="translate(88,440) scale(3.7766666666667)"><rect width="6" height="6"/></g>
<g transform="translate(110,440) scale(3.7766666666667)"><rect width="6" height="6"/></g>
<g transform="translate(132,440) scale(3.7766666666667)"><rect width="6" height="6"/></g>
<g transform="translate(176,440) scale(3.7766666666667)"><rect width="6" height="6"/></g>
<g transform="translate(198,440) scale(3.7766666666667)"><rect width="6" height="6"/></g>
<g transform="translate(220,440) scale(3.7766666666667)"><rect width="6" height="6"/></g>
<g transform="translate(308,440) scale(3.7766666666667)"><rect width="6" height="6"/></g>
<g transform="translate(374,440) scale(3.7766666666667)"><rect width="6" height="6"/></g>
<g transform="translate(396,440) scale(3.7766666666667)"><rect width="6" height="6"/></g>
<g transform="translate(440,440) scale(3.7766666666667)"><rect width="6" height="6"/></g>
<g transform="translate(484,440) scale(3.7766666666667)"><rect width="6" height="6"/></g>
<g transform="translate(506,440) scale(3.7766666666667)"><rect width="6" height="6"/></g>
<g transform="translate(638,440) scale(3.7766666666667)"><rect width="6" height="6"/></g>
<g transform="translate(660,440) scale(3.7766666666667)"><rect width="6" height="6"/></g>
<g transform="translate(682,440) scale(3.7766666666667)"><rect width="6" height="6"/></g>
<g transform="translate(770,440) scale(3.7766666666667)"><rect width="6" height="6"/></g>
<g transform="translate(814,440) scale(3.7766666666667)"><rect width="6" height="6"/></g>
<g transform="translate(836,440) scale(3.7766666666667)"><rect width="6" height="6"/></g>
<g transform="translate(66,462) scale(3.7766666666667)"><rect width="6" height="6"/></g>
<g transform="translate(110,462) scale(3.7766666666667)"><rect width="6" height="6"/></g>
<g transform="translate(132,462) scale(3.7766666666667)"><rect width="6" height="6"/></g>
<g transform="translate(154,462) scale(3.7766666666667)"><rect width="6" height="6"/></g>
<g transform="translate(220,462) scale(3.7766666666667)"><rect width="6" height="6"/></g>
<g transform="translate(308,462) scale(3.7766666666667)"><rect width="6" height="6"/></g>
<g transform="translate(352,462) scale(3.7766666666667)"><rect width="6" height="6"/></g>
<g transform="translate(374,462) scale(3.7766666666667)"><rect width="6" height="6"/></g>
<g transform="translate(396,462) scale(3.7766666666667)"><rect width="6" height="6"/></g>
<g transform="translate(484,462) scale(3.7766666666667)"><rect width="6" height="6"/></g>
<g transform="translate(506,462) scale(3.7766666666667)"><rect width="6" height="6"/></g>
<g transform="translate(528,462) scale(3.7766666666667)"><rect width="6" height="6"/></g>
<g transform="translate(550,462) scale(3.7766666666667)"><rect width="6" height="6"/></g>
<g transform="translate(572,462) scale(3.7766666666667)"><rect width="6" height="6"/></g>
<g transform="translate(660,462) scale(3.7766666666667)"><rect width="6" height="6"/></g>
<g transform="translate(704,462) scale(3.7766666666667)"><rect width="6" height="6"/></g>
<g transform="translate(726,462) scale(3.7766666666667)"><rect width="6" height="6"/></g>
<g transform="translate(770,462) scale(3.7766666666667)"><rect width="6" height="6"/></g>
<g transform="translate(792,462) scale(3.7766666666667)"><rect width="6" height="6"/></g>
<g transform="translate(814,462) scale(3.7766666666667)"><rect width="6" height="6"/></g>
<g transform="translate(836,462) scale(3.7766666666667)"><rect width="6" height="6"/></g>
<g transform="translate(858,462) scale(3.7766666666667)"><rect width="6" height="6"/></g>
<g transform="translate(902,462) scale(3.7766666666667)"><rect width="6" height="6"/></g>
<g transform="translate(110,484) scale(3.7766666666667)"><rect width="6" height="6"/></g>
<g transform="translate(154,484) scale(3.7766666666667)"><rect width="6" height="6"/></g>
<g transform="translate(176,484) scale(3.7766666666667)"><rect width="6" height="6"/></g>
<g transform="translate(264,484) scale(3.7766666666667)"><rect width="6" height="6"/></g>
<g transform="translate(308,484) scale(3.7766666666667)"><rect width="6" height="6"/></g>
<g transform="translate(440,484) scale(3.7766666666667)"><rect width="6" height="6"/></g>
<g transform="translate(594,484) scale(3.7766666666667)"><rect width="6" height="6"/></g>
<g transform="translate(616,484) scale(3.7766666666667)"><rect width="6" height="6"/></g>
<g transform="translate(726,484) scale(3.7766666666667)"><rect width="6" height="6"/></g>
<g transform="translate(770,484) scale(3.7766666666667)"><rect width="6" height="6"/></g>
<g transform="translate(814,484) scale(3.7766666666667)"><rect width="6" height="6"/></g>
<g transform="translate(836,484) scale(3.7766666666667)"><rect width="6" height="6"/></g>
<g transform="translate(858,484) scale(3.7766666666667)"><rect width="6" height="6"/></g>
<g transform="translate(880,484) scale(3.7766666666667)"><rect width="6" height="6"/></g>
<g transform="translate(110,506) scale(3.7766666666667)"><rect width="6" height="6"/></g>
<g transform="translate(132,506) scale(3.7766666666667)"><rect width="6" height="6"/></g>
<g transform="translate(154,506) scale(3.7766666666667)"><rect width="6" height="6"/></g>
<g transform="translate(198,506) scale(3.7766666666667)"><rect width="6" height="6"/></g>
<g transform="translate(220,506) scale(3.7766666666667)"><rect width="6" height="6"/></g>
<g transform="translate(242,506) scale(3.7766666666667)"><rect width="6" height="6"/></g>
<g transform="translate(264,506) scale(3.7766666666667)"><rect width="6" height="6"/></g>
<g transform="translate(352,506) scale(3.7766666666667)"><rect width="6" height="6"/></g>
<g transform="translate(374,506) scale(3.7766666666667)"><rect width="6" height="6"/></g>
<g transform="translate(396,506) scale(3.7766666666667)"><rect width="6" height="6"/></g>
<g transform="translate(418,506) scale(3.7766666666667)"><rect width="6" height="6"/></g>
<g transform="translate(484,506) scale(3.7766666666667)"><rect width="6" height="6"/></g>
<g transform="translate(506,506) scale(3.7766666666667)"><rect width="6" height="6"/></g>
<g transform="translate(528,506) scale(3.7766666666667)"><rect width="6" height="6"/></g>
<g transform="translate(550,506) scale(3.7766666666667)"><rect width="6" height="6"/></g>
<g transform="translate(572,506) scale(3.7766666666667)"><rect width="6" height="6"/></g>
<g transform="translate(594,506) scale(3.7766666666667)"><rect width="6" height="6"/></g>
<g transform="translate(660,506) scale(3.7766666666667)"><rect width="6" height="6"/></g>
<g transform="translate(704,506) scale(3.7766666666667)"><rect width="6" height="6"/></g>
<g transform="translate(726,506) scale(3.7766666666667)"><rect width="6" height="6"/></g>
<g transform="translate(748,506) scale(3.7766666666667)"><rect width="6" height="6"/></g>
<g transform="translate(792,506) scale(3.7766666666667)"><rect width="6" height="6"/></g>
<g transform="translate(814,506) scale(3.7766666666667)"><rect width="6" height="6"/></g>
<g transform="translate(836,506) scale(3.7766666666667)"><rect width="6" height="6"/></g>
<g transform="translate(880,506) scale(3.7766666666667)"><rect width="6" height="6"/></g>
<g transform="translate(924,506) scale(3.7766666666667)"><rect width="6" height="6"/></g>
<g transform="translate(44,528) scale(3.7766666666667)"><rect width="6" height="6"/></g>
<g transform="translate(66,528) scale(3.7766666666667)"><rect width="6" height="6"/></g>
<g transform="translate(132,528) scale(3.7766666666667)"><rect width="6" height="6"/></g>
<g transform="translate(154,528) scale(3.7766666666667)"><rect width="6" height="6"/></g>
<g transform="translate(176,528) scale(3.7766666666667)"><rect width="6" height="6"/></g>
<g transform="translate(286,528) scale(3.7766666666667)"><rect width="6" height="6"/></g>
<g transform="translate(308,528) scale(3.7766666666667)"><rect width="6" height="6"/></g>
<g transform="translate(440,528) scale(3.7766666666667)"><rect width="6" height="6"/></g>
<g transform="translate(462,528) scale(3.7766666666667)"><rect width="6" height="6"/></g>
<g transform="translate(506,528) scale(3.7766666666667)"><rect width="6" height="6"/></g>
<g transform="translate(572,528) scale(3.7766666666667)"><rect width="6" height="6"/></g>
<g transform="translate(616,528) scale(3.7766666666667)"><rect width="6" height="6"/></g>
<g transform="translate(638,528) scale(3.7766666666667)"><rect width="6" height="6"/></g>
<g transform="translate(704,528) scale(3.7766666666667)"><rect width="6" height="6"/></g>
<g transform="translate(748,528) scale(3.7766666666667)"><rect width="6" height="6"/></g>
<g transform="translate(792,528) scale(3.7766666666667)"><rect width="6" height="6"/></g>
<g transform="translate(858,528) scale(3.7766666666667)"><rect width="6" height="6"/></g>
<g transform="translate(44,550) scale(3.7766666666667)"><rect width="6" height="6"/></g>
<g transform="translate(66,550) scale(3.7766666666667)"><rect width="6" height="6"/></g>
<g transform="translate(88,550) scale(3.7766666666667)"><rect width="6" height="6"/></g>
<g transform="translate(110,550) scale(3.7766666666667)"><rect width="6" height="6"/></g>
<g transform="translate(132,550) scale(3.7766666666667)"><rect width="6" height="6"/></g>
<g transform="translate(154,550) scale(3.7766666666667)"><rect width="6" height="6"/></g>
<g transform="translate(286,550) scale(3.7766666666667)"><rect width="6" height="6"/></g>
<g transform="translate(352,550) scale(3.7766666666667)"><rect width="6" height="6"/></g>
<g transform="translate(396,550) scale(3.7766666666667)"><rect width="6" height="6"/></g>
<g transform="translate(462,550) scale(3.7766666666667)"><rect width="6" height="6"/></g>
<g transform="translate(484,550) scale(3.7766666666667)"><rect width="6" height="6"/></g>
<g transform="translate(506,550) scale(3.7766666666667)"><rect width="6" height="6"/></g>
<g transform="translate(528,550) scale(3.7766666666667)"><rect width="6" height="6"/></g>
<g transform="translate(550,550) scale(3.7766666666667)"><rect width="6" height="6"/></g>
<g transform="translate(572,550) scale(3.7766666666667)"><rect width="6" height="6"/></g>
<g transform="translate(616,550) scale(3.7766666666667)"><rect width="6" height="6"/></g>
<g transform="translate(704,550) scale(3.7766666666667)"><rect width="6" height="6"/></g>
<g transform="translate(748,550) scale(3.7766666666667)"><rect width="6" height="6"/></g>
<g transform="translate(792,550) scale(3.7766666666667)"><rect width="6" height="6"/></g>
<g transform="translate(814,550) scale(3.7766666666667)"><rect width="6" height="6"/></g>
<g transform="translate(858,550) scale(3.7766666666667)"><rect width="6" height="6"/></g>
<g transform="translate(902,550) scale(3.7766666666667)"><rect width="6" height="6"/></g>
<g transform="translate(110,572) scale(3.7766666666667)"><rect width="6" height="6"/></g>
<g transform="translate(154,572) scale(3.7766666666667)"><rect width="6" height="6"/></g>
<g transform="translate(176,572) scale(3.7766666666667)"><rect width="6" height="6"/></g>
<g transform="translate(220,572) scale(3.7766666666667)"><rect width="6" height="6"/></g>
<g transform="translate(264,572) scale(3.7766666666667)"><rect width="6" height="6"/></g>
<g transform="translate(286,572) scale(3.7766666666667)"><rect width="6" height="6"/></g>
<g transform="translate(330,572) scale(3.7766666666667)"><rect width="6" height="6"/></g>
<g transform="translate(352,572) scale(3.7766666666667)"><rect width="6" height="6"/></g>
<g transform="translate(418,572) scale(3.7766666666667)"><rect width="6" height="6"/></g>
<g transform="translate(462,572) scale(3.7766666666667)"><rect width="6" height="6"/></g>
<g transform="translate(484,572) scale(3.7766666666667)"><rect width="6" height="6"/></g>
<g transform="translate(594,572) scale(3.7766666666667)"><rect width="6" height="6"/></g>
<g transform="translate(616,572) scale(3.7766666666667)"><rect width="6" height="6"/></g>
<g transform="translate(638,572) scale(3.7766666666667)"><rect width="6" height="6"/></g>
<g transform="translate(682,572) scale(3.7766666666667)"><rect width="6" height="6"/></g>
<g transform="translate(726,572) scale(3.7766666666667)"><rect width="6" height="6"/></g>
<g transform="translate(748,572) scale(3.7766666666667)"><rect width="6" height="6"/></g>
<g transform="translate(902,572) scale(3.7766666666667)"><rect width="6" height="6"/></g>
<g transform="translate(924,572) scale(3.7766666666667)"><rect width="6" height="6"/></g>
<g transform="translate(44,594) scale(3.7766666666667)"><rect width="6" height="6"/></g>
<g transform="translate(88,594) scale(3.7766666666667)"><rect width="6" height="6"/></g>
<g transform="translate(132,594) scale(3.7766666666667)"><rect width="6" height="6"/></g>
<g transform="translate(154,594) scale(3.7766666666667)"><rect width="6" height="6"/></g>
<g transform="translate(198,594) scale(3.7766666666667)"><rect width="6" height="6"/></g>
<g transform="translate(220,594) scale(3.7766666666667)"><rect width="6" height="6"/></g>
<g transform="translate(242,594) scale(3.7766666666667)"><rect width="6" height="6"/></g>
<g transform="translate(264,594) scale(3.7766666666667)"><rect width="6" height="6"/></g>
<g transform="translate(286,594) scale(3.7766666666667)"><rect width="6" height="6"/></g>
<g transform="translate(308,594) scale(3.7766666666667)"><rect width="6" height="6"/></g>
<g transform="translate(330,594) scale(3.7766666666667)"><rect width="6" height="6"/></g>
<g transform="translate(396,594) scale(3.7766666666667)"><rect width="6" height="6"/></g>
<g transform="translate(418,594) scale(3.7766666666667)"><rect width="6" height="6"/></g>
<g transform="translate(440,594) scale(3.7766666666667)"><rect width="6" height="6"/></g>
<g transform="translate(462,594) scale(3.7766666666667)"><rect width="6" height="6"/></g>
<g transform="translate(484,594) scale(3.7766666666667)"><rect width="6" height="6"/></g>
<g transform="translate(528,594) scale(3.7766666666667)"><rect width="6" height="6"/></g>
<g transform="translate(550,594) scale(3.7766666666667)"><rect width="6" height="6"/></g>
<g transform="translate(660,594) scale(3.7766666666667)"><rect width="6" height="6"/></g>
<g transform="translate(682,594) scale(3.7766666666667)"><rect width="6" height="6"/></g>
<g transform="translate(704,594) scale(3.7766666666667)"><rect width="6" height="6"/></g>
<g transform="translate(726,594) scale(3.7766666666667)"><rect width="6" height="6"/></g>
<g transform="translate(748,594) scale(3.7766666666667)"><rect width="6" height="6"/></g>
<g transform="translate(770,594) scale(3.7766666666667)"><rect width="6" height="6"/></g>
<g transform="translate(792,594) scale(3.7766666666667)"><rect width="6" height="6"/></g>
<g transform="translate(814,594) scale(3.7766666666667)"><rect width="6" height="6"/></g>
<g transform="translate(836,594) scale(3.7766666666667)"><rect width="6" height="6"/></g>
<g transform="translate(924,594) scale(3.7766666666667)"><rect width="6" height="6"/></g>
<g transform="translate(44,616) scale(3.7766666666667)"><rect width="6" height="6"/></g>
<g transform="translate(88,616) scale(3.7766666666667)"><rect width="6" height="6"/></g>
<g transform="translate(154,616) scale(3.7766666666667)"><rect width="6" height="6"/></g>
<g transform="translate(176,616) scale(3.7766666666667)"><rect width="6" height="6"/></g>
<g transform="translate(198,616) scale(3.7766666666667)"><rect width="6" height="6"/></g>
<g transform="translate(242,616) scale(3.7766666666667)"><rect width="6" height="6"/></g>
<g transform="translate(264,616) scale(3.7766666666667)"><rect width="6" height="6"/></g>
<g transform="translate(308,616) scale(3.7766666666667)"><rect width="6" height="6"/></g>
<g transform="translate(330,616) scale(3.7766666666667)"><rect width="6" height="6"/></g>
<g transform="translate(352,616) scale(3.7766666666667)"><rect width="6" height="6"/></g>
<g transform="translate(374,616) scale(3.7766666666667)"><rect width="6" height="6"/></g>
<g transform="translate(418,616) scale(3.7766666666667)"><rect width="6" height="6"/></g>
<g transform="translate(506,616) scale(3.7766666666667)"><rect width="6" height="6"/></g>
<g transform="translate(528,616) scale(3.7766666666667)"><rect width="6" height="6"/></g>
<g transform="translate(594,616) scale(3.7766666666667)"><rect width="6" height="6"/></g>
<g transform="translate(638,616) scale(3.7766666666667)"><rect width="6" height="6"/></g>
<g transform="translate(660,616) scale(3.7766666666667)"><rect width="6" height="6"/></g>
<g transform="translate(682,616) scale(3.7766666666667)"><rect width="6" height="6"/></g>
<g transform="translate(770,616) scale(3.7766666666667)"><rect width="6" height="6"/></g>
<g transform="translate(814,616) scale(3.7766666666667)"><rect width="6" height="6"/></g>
<g transform="translate(858,616) scale(3.7766666666667)"><rect width="6" height="6"/></g>
<g transform="translate(880,616) scale(3.7766666666667)"><rect width="6" height="6"/></g>
<g transform="translate(66,638) scale(3.7766666666667)"><rect width="6" height="6"/></g>
<g transform="translate(154,638) scale(3.7766666666667)"><rect width="6" height="6"/></g>
<g transform="translate(220,638) scale(3.7766666666667)"><rect width="6" height="6"/></g>
<g transform="translate(264,638) scale(3.7766666666667)"><rect width="6" height="6"/></g>
<g transform="translate(286,638) scale(3.7766666666667)"><rect width="6" height="6"/></g>
<g transform="translate(308,638) scale(3.7766666666667)"><rect width="6" height="6"/></g>
<g transform="translate(330,638) scale(3.7766666666667)"><rect width="6" height="6"/></g>
<g transform="translate(396,638) scale(3.7766666666667)"><rect width="6" height="6"/></g>
<g transform="translate(418,638) scale(3.7766666666667)"><rect width="6" height="6"/></g>
<g transform="translate(440,638) scale(3.7766666666667)"><rect width="6" height="6"/></g>
<g transform="translate(462,638) scale(3.7766666666667)"><rect width="6" height="6"/></g>
<g transform="translate(506,638) scale(3.7766666666667)"><rect width="6" height="6"/></g>
<g transform="translate(528,638) scale(3.7766666666667)"><rect width="6" height="6"/></g>
<g transform="translate(704,638) scale(3.7766666666667)"><rect width="6" height="6"/></g>
<g transform="translate(726,638) scale(3.7766666666667)"><rect width="6" height="6"/></g>
<g transform="translate(748,638) scale(3.7766666666667)"><rect width="6" height="6"/></g>
<g transform="translate(770,638) scale(3.7766666666667)"><rect width="6" height="6"/></g>
<g transform="translate(792,638) scale(3.7766666666667)"><rect width="6" height="6"/></g>
<g transform="translate(814,638) scale(3.7766666666667)"><rect width="6" height="6"/></g>
<g transform="translate(902,638) scale(3.7766666666667)"><rect width="6" height="6"/></g>
<g transform="translate(924,638) scale(3.7766666666667)"><rect width="6" height="6"/></g>
<g transform="translate(44,660) scale(3.7766666666667)"><rect width="6" height="6"/></g>
<g transform="translate(88,660) scale(3.7766666666667)"><rect width="6" height="6"/></g>
<g transform="translate(176,660) scale(3.7766666666667)"><rect width="6" height="6"/></g>
<g transform="translate(220,660) scale(3.7766666666667)"><rect width="6" height="6"/></g>
<g transform="translate(264,660) scale(3.7766666666667)"><rect width="6" height="6"/></g>
<g transform="translate(286,660) scale(3.7766666666667)"><rect width="6" height="6"/></g>
<g transform="translate(352,660) scale(3.7766666666667)"><rect width="6" height="6"/></g>
<g transform="translate(374,660) scale(3.7766666666667)"><rect width="6" height="6"/></g>
<g transform="translate(396,660) scale(3.7766666666667)"><rect width="6" height="6"/></g>
<g transform="translate(462,660) scale(3.7766666666667)"><rect width="6" height="6"/></g>
<g transform="translate(484,660) scale(3.7766666666667)"><rect width="6" height="6"/></g>
<g transform="translate(572,660) scale(3.7766666666667)"><rect width="6" height="6"/></g>
<g transform="translate(616,660) scale(3.7766666666667)"><rect width="6" height="6"/></g>
<g transform="translate(638,660) scale(3.7766666666667)"><rect width="6" height="6"/></g>
<g transform="translate(682,660) scale(3.7766666666667)"><rect width="6" height="6"/></g>
<g transform="translate(726,660) scale(3.7766666666667)"><rect width="6" height="6"/></g>
<g transform="translate(770,660) scale(3.7766666666667)"><rect width="6" height="6"/></g>
<g transform="translate(858,660) scale(3.7766666666667)"><rect width="6" height="6"/></g>
<g transform="translate(880,660) scale(3.7766666666667)"><rect width="6" height="6"/></g>
<g transform="translate(902,660) scale(3.7766666666667)"><rect width="6" height="6"/></g>
<g transform="translate(44,682) scale(3.7766666666667)"><rect width="6" height="6"/></g>
<g transform="translate(154,682) scale(3.7766666666667)"><rect width="6" height="6"/></g>
<g transform="translate(198,682) scale(3.7766666666667)"><rect width="6" height="6"/></g>
<g transform="translate(242,682) scale(3.7766666666667)"><rect width="6" height="6"/></g>
<g transform="translate(308,682) scale(3.7766666666667)"><rect width="6" height="6"/></g>
<g transform="translate(330,682) scale(3.7766666666667)"><rect width="6" height="6"/></g>
<g transform="translate(374,682) scale(3.7766666666667)"><rect width="6" height="6"/></g>
<g transform="translate(418,682) scale(3.7766666666667)"><rect width="6" height="6"/></g>
<g transform="translate(440,682) scale(3.7766666666667)"><rect width="6" height="6"/></g>
<g transform="translate(528,682) scale(3.7766666666667)"><rect width="6" height="6"/></g>
<g transform="translate(550,682) scale(3.7766666666667)"><rect width="6" height="6"/></g>
<g transform="translate(638,682) scale(3.7766666666667)"><rect width="6" height="6"/></g>
<g transform="translate(660,682) scale(3.7766666666667)"><rect width="6" height="6"/></g>
<g transform="translate(748,682) scale(3.7766666666667)"><rect width="6" height="6"/></g>
<g transform="translate(792,682) scale(3.7766666666667)"><rect width="6" height="6"/></g>
<g transform="translate(814,682) scale(3.7766666666667)"><rect width="6" height="6"/></g>
<g transform="translate(836,682) scale(3.7766666666667)"><rect width="6" height="6"/></g>
<g transform="translate(880,682) scale(3.7766666666667)"><rect width="6" height="6"/></g>
<g transform="translate(902,682) scale(3.7766666666667)"><rect width="6" height="6"/></g>
<g transform="translate(924,682) scale(3.7766666666667)"><rect width="6" height="6"/></g>
<g transform="translate(44,704) scale(3.7766666666667)"><rect width="6" height="6"/></g>
<g transform="translate(88,704) scale(3.7766666666667)"><rect width="6" height="6"/></g>
<g transform="translate(110,704) scale(3.7766666666667)"><rect width="6" height="6"/></g>
<g transform="translate(132,704) scale(3.7766666666667)"><rect width="6" height="6"/></g>
<g transform="translate(176,704) scale(3.7766666666667)"><rect width="6" height="6"/></g>
<g transform="translate(264,704) scale(3.7766666666667)"><rect width="6" height="6"/></g>
<g transform="translate(374,704) scale(3.7766666666667)"><rect width="6" height="6"/></g>
<g transform="translate(396,704) scale(3.7766666666667)"><rect width="6" height="6"/></g>
<g transform="translate(418,704) scale(3.7766666666667)"><rect width="6" height="6"/></g>
<g transform="translate(440,704) scale(3.7766666666667)"><rect width="6" height="6"/></g>
<g transform="translate(484,704) scale(3.7766666666667)"><rect width="6" height="6"/></g>
<g transform="translate(506,704) scale(3.7766666666667)"><rect width="6" height="6"/></g>
<g transform="translate(528,704) scale(3.7766666666667)"><rect width="6" height="6"/></g>
<g transform="translate(572,704) scale(3.7766666666667)"><rect width="6" height="6"/></g>
<g transform="translate(594,704) scale(3.7766666666667)"><rect width="6" height="6"/></g>
<g transform="translate(638,704) scale(3.7766666666667)"><rect width="6" height="6"/></g>
<g transform="translate(660,704) scale(3.7766666666667)"><rect width="6" height="6"/></g>
<g transform="translate(704,704) scale(3.7766666666667)"><rect width="6" height="6"/></g>
<g transform="translate(748,704) scale(3.7766666666667)"><rect width="6" height="6"/></g>
<g transform="translate(792,704) scale(3.7766666666667)"><rect width="6" height="6"/></g>
<g transform="translate(814,704) scale(3.7766666666667)"><rect width="6" height="6"/></g>
<g transform="translate(836,704) scale(3.7766666666667)"><rect width="6" height="6"/></g>
<g transform="translate(858,704) scale(3.7766666666667)"><rect width="6" height="6"/></g>
<g transform="translate(44,726) scale(3.7766666666667)"><rect width="6" height="6"/></g>
<g transform="translate(88,726) scale(3.7766666666667)"><rect width="6" height="6"/></g>
<g transform="translate(110,726) scale(3.7766666666667)"><rect width="6" height="6"/></g>
<g transform="translate(132,726) scale(3.7766666666667)"><rect width="6" height="6"/></g>
<g transform="translate(220,726) scale(3.7766666666667)"><rect width="6" height="6"/></g>
<g transform="translate(308,726) scale(3.7766666666667)"><rect width="6" height="6"/></g>
<g transform="translate(352,726) scale(3.7766666666667)"><rect width="6" height="6"/></g>
<g transform="translate(374,726) scale(3.7766666666667)"><rect width="6" height="6"/></g>
<g transform="translate(440,726) scale(3.7766666666667)"><rect width="6" height="6"/></g>
<g transform="translate(506,726) scale(3.7766666666667)"><rect width="6" height="6"/></g>
<g transform="translate(528,726) scale(3.7766666666667)"><rect width="6" height="6"/></g>
<g transform="translate(550,726) scale(3.7766666666667)"><rect width="6" height="6"/></g>
<g transform="translate(572,726) scale(3.7766666666667)"><rect width="6" height="6"/></g>
<g transform="translate(616,726) scale(3.7766666666667)"><rect width="6" height="6"/></g>
<g transform="translate(638,726) scale(3.7766666666667)"><rect width="6" height="6"/></g>
<g transform="translate(660,726) scale(3.7766666666667)"><rect width="6" height="6"/></g>
<g transform="translate(726,726) scale(3.7766666666667)"><rect width="6" height="6"/></g>
<g transform="translate(748,726) scale(3.7766666666667)"><rect width="6" height="6"/></g>
<g transform="translate(770,726) scale(3.7766666666667)"><rect width="6" height="6"/></g>
<g transform="translate(902,726) scale(3.7766666666667)"><rect width="6" height="6"/></g>
<g transform="translate(924,726) scale(3.7766666666667)"><rect width="6" height="6"/></g>
<g transform="translate(44,748) scale(3.7766666666667)"><rect width="6" height="6"/></g>
<g transform="translate(132,748) scale(3.7766666666667)"><rect width="6" height="6"/></g>
<g transform="translate(176,748) scale(3.7766666666667)"><rect width="6" height="6"/></g>
<g transform="translate(198,748) scale(3.7766666666667)"><rect width="6" height="6"/></g>
<g transform="translate(220,748) scale(3.7766666666667)"><rect width="6" height="6"/></g>
<g transform="translate(242,748) scale(3.7766666666667)"><rect width="6" height="6"/></g>
<g transform="translate(308,748) scale(3.7766666666667)"><rect width="6" height="6"/></g>
<g transform="translate(352,748) scale(3.7766666666667)"><rect width="6" height="6"/></g>
<g transform="translate(374,748) scale(3.7766666666667)"><rect width="6" height="6"/></g>
<g transform="translate(396,748) scale(3.7766666666667)"><rect width="6" height="6"/></g>
<g transform="translate(418,748) scale(3.7766666666667)"><rect width="6" height="6"/></g>
<g transform="translate(528,748) scale(3.7766666666667)"><rect width="6" height="6"/></g>
<g transform="translate(550,748) scale(3.7766666666667)"><rect width="6" height="6"/></g>
<g transform="translate(572,748) scale(3.7766666666667)"><rect width="6" height="6"/></g>
<g transform="translate(594,748) scale(3.7766666666667)"><rect width="6" height="6"/></g>
<g transform="translate(616,748) scale(3.7766666666667)"><rect width="6" height="6"/></g>
<g transform="translate(638,748) scale(3.7766666666667)"><rect width="6" height="6"/></g>
<g transform="translate(682,748) scale(3.7766666666667)"><rect width="6" height="6"/></g>
<g transform="translate(748,748) scale(3.7766666666667)"><rect width="6" height="6"/></g>
<g transform="translate(770,748) scale(3.7766666666667)"><rect width="6" height="6"/></g>
<g transform="translate(792,748) scale(3.7766666666667)"><rect width="6" height="6"/></g>
<g transform="translate(814,748) scale(3.7766666666667)"><rect width="6" height="6"/></g>
<g transform="translate(836,748) scale(3.7766666666667)"><rect width="6" height="6"/></g>
<g transform="translate(858,748) scale(3.7766666666667)"><rect width="6" height="6"/></g>
<g transform="translate(880,748) scale(3.7766666666667)"><rect width="6" height="6"/></g>
<g transform="translate(924,748) scale(3.7766666666667)"><rect width="6" height="6"/></g>
<g transform="translate(220,770) scale(3.7766666666667)"><rect width="6" height="6"/></g>
<g transform="translate(242,770) scale(3.7766666666667)"><rect width="6" height="6"/></g>
<g transform="translate(264,770) scale(3.7766666666667)"><rect width="6" height="6"/></g>
<g transform="translate(374,770) scale(3.7766666666667)"><rect width="6" height="6"/></g>
<g transform="translate(396,770) scale(3.7766666666667)"><rect width="6" height="6"/></g>
<g transform="translate(440,770) scale(3.7766666666667)"><rect width="6" height="6"/></g>
<g transform="translate(484,770) scale(3.7766666666667)"><rect width="6" height="6"/></g>
<g transform="translate(550,770) scale(3.7766666666667)"><rect width="6" height="6"/></g>
<g transform="translate(660,770) scale(3.7766666666667)"><rect width="6" height="6"/></g>
<g transform="translate(682,770) scale(3.7766666666667)"><rect width="6" height="6"/></g>
<g transform="translate(748,770) scale(3.7766666666667)"><rect width="6" height="6"/></g>
<g transform="translate(836,770) scale(3.7766666666667)"><rect width="6" height="6"/></g>
<g transform="translate(880,770) scale(3.7766666666667)"><rect width="6" height="6"/></g>
<g transform="translate(924,770) scale(3.7766666666667)"><rect width="6" height="6"/></g>
<g transform="translate(220,792) scale(3.7766666666667)"><rect width="6" height="6"/></g>
<g transform="translate(264,792) scale(3.7766666666667)"><rect width="6" height="6"/></g>
<g transform="translate(374,792) scale(3.7766666666667)"><rect width="6" height="6"/></g>
<g transform="translate(396,792) scale(3.7766666666667)"><rect width="6" height="6"/></g>
<g transform="translate(440,792) scale(3.7766666666667)"><rect width="6" height="6"/></g>
<g transform="translate(484,792) scale(3.7766666666667)"><rect width="6" height="6"/></g>
<g transform="translate(506,792) scale(3.7766666666667)"><rect width="6" height="6"/></g>
<g transform="translate(528,792) scale(3.7766666666667)"><rect width="6" height="6"/></g>
<g transform="translate(572,792) scale(3.7766666666667)"><rect width="6" height="6"/></g>
<g transform="translate(594,792) scale(3.7766666666667)"><rect width="6" height="6"/></g>
<g transform="translate(638,792) scale(3.7766666666667)"><rect width="6" height="6"/></g>
<g transform="translate(704,792) scale(3.7766666666667)"><rect width="6" height="6"/></g>
<g transform="translate(726,792) scale(3.7766666666667)"><rect width="6" height="6"/></g>
<g transform="translate(748,792) scale(3.7766666666667)"><rect width="6" height="6"/></g>
<g transform="translate(792,792) scale(3.7766666666667)"><rect width="6" height="6"/></g>
<g transform="translate(836,792) scale(3.7766666666667)"><rect width="6" height="6"/></g>
<g transform="translate(880,792) scale(3.7766666666667)"><rect width="6" height="6"/></g>
<g transform="translate(902,792) scale(3.7766666666667)"><rect width="6" height="6"/></g>
<g transform="translate(286,814) scale(3.7766666666667)"><rect width="6" height="6"/></g>
<g transform="translate(308,814) scale(3.7766666666667)"><rect width="6" height="6"/></g>
<g transform="translate(352,814) scale(3.7766666666667)"><rect width="6" height="6"/></g>
<g transform="translate(374,814) scale(3.7766666666667)"><rect width="6" height="6"/></g>
<g transform="translate(506,814) scale(3.7766666666667)"><rect width="6" height="6"/></g>
<g transform="translate(528,814) scale(3.7766666666667)"><rect width="6" height="6"/></g>
<g transform="translate(616,814) scale(3.7766666666667)"><rect width="6" height="6"/></g>
<g transform="translate(660,814) scale(3.7766666666667)"><rect width="6" height="6"/></g>
<g transform="translate(748,814) scale(3.7766666666667)"><rect width="6" height="6"/></g>
<g transform="translate(836,814) scale(3.7766666666667)"><rect width="6" height="6"/></g>
<g transform="translate(902,814) scale(3.7766666666667)"><rect width="6" height="6"/></g>
<g transform="translate(924,814) scale(3.7766666666667)"><rect width="6" height="6"/></g>
<g transform="translate(220,836) scale(3.7766666666667)"><rect width="6" height="6"/></g>
<g transform="translate(308,836) scale(3.7766666666667)"><rect width="6" height="6"/></g>
<g transform="translate(440,836) scale(3.7766666666667)"><rect width="6" height="6"/></g>
<g transform="translate(462,836) scale(3.7766666666667)"><rect width="6" height="6"/></g>
<g transform="translate(506,836) scale(3.7766666666667)"><rect width="6" height="6"/></g>
<g transform="translate(572,836) scale(3.7766666666667)"><rect width="6" height="6"/></g>
<g transform="translate(594,836) scale(3.7766666666667)"><rect width="6" height="6"/></g>
<g transform="translate(660,836) scale(3.7766666666667)"><rect width="6" height="6"/></g>
<g transform="translate(682,836) scale(3.7766666666667)"><rect width="6" height="6"/></g>
<g transform="translate(748,836) scale(3.7766666666667)"><rect width="6" height="6"/></g>
<g transform="translate(770,836) scale(3.7766666666667)"><rect width="6" height="6"/></g>
<g transform="translate(792,836) scale(3.7766666666667)"><rect width="6" height="6"/></g>
<g transform="translate(814,836) scale(3.7766666666667)"><rect width="6" height="6"/></g>
<g transform="translate(836,836) scale(3.7766666666667)"><rect width="6" height="6"/></g>
<g transform="translate(880,836) scale(3.7766666666667)"><rect width="6" height="6"/></g>
<g transform="translate(902,836) scale(3.7766666666667)"><rect width="6" height="6"/></g>
<g transform="translate(220,858) scale(3.7766666666667)"><rect width="6" height="6"/></g>
<g transform="translate(242,858) scale(3.7766666666667)"><rect width="6" height="6"/></g>
<g transform="translate(264,858) scale(3.7766666666667)"><rect width="6" height="6"/></g>
<g transform="translate(330,858) scale(3.7766666666667)"><rect width="6" height="6"/></g>
<g transform="translate(352,858) scale(3.7766666666667)"><rect width="6" height="6"/></g>
<g transform="translate(374,858) scale(3.7766666666667)"><rect width="6" height="6"/></g>
<g transform="translate(396,858) scale(3.7766666666667)"><rect width="6" height="6"/></g>
<g transform="translate(418,858) scale(3.7766666666667)"><rect width="6" height="6"/></g>
<g transform="translate(484,858) scale(3.7766666666667)"><rect width="6" height="6"/></g>
<g transform="translate(506,858) scale(3.7766666666667)"><rect width="6" height="6"/></g>
<g transform="translate(550,858) scale(3.7766666666667)"><rect width="6" height="6"/></g>
<g transform="translate(594,858) scale(3.7766666666667)"><rect width="6" height="6"/></g>
<g transform="translate(616,858) scale(3.7766666666667)"><rect width="6" height="6"/></g>
<g transform="translate(638,858) scale(3.7766666666667)"><rect width="6" height="6"/></g>
<g transform="translate(660,858) scale(3.7766666666667)"><rect width="6" height="6"/></g>
<g transform="translate(682,858) scale(3.7766666666667)"><rect width="6" height="6"/></g>
<g transform="translate(704,858) scale(3.7766666666667)"><rect width="6" height="6"/></g>
<g transform="translate(858,858) scale(3.7766666666667)"><rect width="6" height="6"/></g>
<g transform="translate(902,858) scale(3.7766666666667)"><rect width="6" height="6"/></g>
<g transform="translate(924,858) scale(3.7766666666667)"><rect width="6" height="6"/></g>
<g transform="translate(220,880) scale(3.7766666666667)"><rect width="6" height="6"/></g>
<g transform="translate(242,880) scale(3.7766666666667)"><rect width="6" height="6"/></g>
<g transform="translate(286,880) scale(3.7766666666667)"><rect width="6" height="6"/></g>
<g transform="translate(308,880) scale(3.7766666666667)"><rect width="6" height="6"/></g>
<g transform="translate(352,880) scale(3.7766666666667)"><rect width="6" height="6"/></g>
<g transform="translate(418,880) scale(3.7766666666667)"><rect width="6" height="6"/></g>
<g transform="translate(462,880) scale(3.7766666666667)"><rect width="6" height="6"/></g>
<g transform="translate(506,880) scale(3.7766666666667)"><rect width="6" height="6"/></g>
<g transform="translate(528,880) scale(3.7766666666667)"><rect width="6" height="6"/></g>
<g transform="translate(594,880) scale(3.7766666666667)"><rect width="6" height="6"/></g>
<g transform="translate(616,880) scale(3.7766666666667)"><rect width="6" height="6"/></g>
<g transform="translate(638,880) scale(3.7766666666667)"><rect width="6" height="6"/></g>
<g transform="translate(660,880) scale(3.7766666666667)"><rect width="6" height="6"/></g>
<g transform="translate(704,880) scale(3.7766666666667)"><rect width="6" height="6"/></g>
<g transform="translate(726,880) scale(3.7766666666667)"><rect width="6" height="6"/></g>
<g transform="translate(748,880) scale(3.7766666666667)"><rect width="6" height="6"/></g>
<g transform="translate(770,880) scale(3.7766666666667)"><rect width="6" height="6"/></g>
<g transform="translate(792,880) scale(3.7766666666667)"><rect width="6" height="6"/></g>
<g transform="translate(836,880) scale(3.7766666666667)"><rect width="6" height="6"/></g>
<g transform="translate(880,880) scale(3.7766666666667)"><rect width="6" height="6"/></g>
<g transform="translate(220,902) scale(3.7766666666667)"><rect width="6" height="6"/></g>
<g transform="translate(264,902) scale(3.7766666666667)"><rect width="6" height="6"/></g>
<g transform="translate(286,902) scale(3.7766666666667)"><rect width="6" height="6"/></g>
<g transform="translate(396,902) scale(3.7766666666667)"><rect width="6" height="6"/></g>
<g transform="translate(462,902) scale(3.7766666666667)"><rect width="6" height="6"/></g>
<g transform="translate(484,902) scale(3.7766666666667)"><rect width="6" height="6"/></g>
<g transform="translate(506,902) scale(3.7766666666667)"><rect width="6" height="6"/></g>
<g transform="translate(528,902) scale(3.7766666666667)"><rect width="6" height="6"/></g>
<g transform="translate(616,902) scale(3.7766666666667)"><rect width="6" height="6"/></g>
<g transform="translate(638,902) scale(3.7766666666667)"><rect width="6" height="6"/></g>
<g transform="translate(660,902) scale(3.7766666666667)"><rect width="6" height="6"/></g>
<g transform="translate(726,902) scale(3.7766666666667)"><rect width="6" height="6"/></g>
<g transform="translate(748,902) scale(3.7766666666667)"><rect width="6" height="6"/></g>
<g transform="translate(770,902) scale(3.7766666666667)"><rect width="6" height="6"/></g>
<g transform="translate(792,902) scale(3.7766666666667)"><rect width="6" height="6"/></g>
<g transform="translate(814,902) scale(3.7766666666667)"><rect width="6" height="6"/></g>
<g transform="translate(858,902) scale(3.7766666666667)"><rect width="6" height="6"/></g>
<g transform="translate(902,902) scale(3.7766666666667)"><rect width="6" height="6"/></g>
<g transform="translate(220,924) scale(3.7766666666667)"><rect width="6" height="6"/></g>
<g transform="translate(264,924) scale(3.7766666666667)"><rect width="6" height="6"/></g>
<g transform="translate(286,924) scale(3.7766666666667)"><rect width="6" height="6"/></g>
<g transform="translate(308,924) scale(3.7766666666667)"><rect width="6" height="6"/></g>
<g transform="translate(352,924) scale(3.7766666666667)"><rect width="6" height="6"/></g>
<g transform="translate(418,924) scale(3.7766666666667)"><rect width="6" height="6"/></g>
<g transform="translate(462,924) scale(3.7766666666667)"><rect width="6" height="6"/></g>
<g transform="translate(484,924) scale(3.7766666666667)"><rect width="6" height="6"/></g>
<g transform="translate(528,924) scale(3.7766666666667)"><rect width="6" height="6"/></g>
<g transform="translate(572,924) scale(3.7766666666667)"><rect width="6" height="6"/></g>
<g transform="translate(594,924) scale(3.7766666666667)"><rect width="6" height="6"/></g>
<g transform="translate(616,924) scale(3.7766666666667)"><rect width="6" height="6"/></g>
<g transform="translate(638,924) scale(3.7766666666667)"><rect width="6" height="6"/></g>
<g transform="translate(682,924) scale(3.7766666666667)"><rect width="6" height="6"/></g>
<g transform="translate(704,924) scale(3.7766666666667)"><rect width="6" height="6"/></g>
<g transform="translate(726,924) scale(3.7766666666667)"><rect width="6" height="6"/></g>
<g transform="translate(814,924) scale(3.7766666666667)"><rect width="6" height="6"/></g>
<g transform="translate(44,44)"><g transform="scale(11)"><path d="M0,0v14h14V0H0z M12,12H2V2h10V12z"/></g></g>
<g transform="translate(792,44)"><g transform="scale(11)"><path d="M0,0v14h14V0H0z M12,12H2V2h10V12z"/></g></g>
<g transform="translate(44,792)"><g transform="scale(11)"><path d="M0,0v14h14V0H0z M12,12H2V2h10V12z"/></g></g>
<g transform="translate(88,88)"><g transform="scale(11)"><rect width="6" height="6"/></g></g>
<g transform="translate(836,88)"><g transform="scale(11)"><rect width="6" height="6"/></g></g>
<g transform="translate(88,836)"><g transform="scale(11)"><rect width="6" height="6"/></g></g>
</g></svg>
